<svg width="30" height="50" viewBox="0 0 30 50" fill="none" xmlns="http://www.w3.org/2000/svg">
<path d="M28.8001 7.42379L24.8476 5.13285L16.2761 0.182939C16.0654 0.0630425 15.8271 0 15.5847 0C15.3423 0 15.104 0.0630425 14.8933 0.182939C14.6844 0.304303 14.5111 0.478432 14.3907 0.687879C14.2703 0.897326 14.2071 1.13474 14.2073 1.37632V15.9299C14.2075 16.0472 14.1768 16.1625 14.1183 16.2641C14.0598 16.3658 13.9756 16.4503 13.8741 16.5092L11.6267 17.8158L1.24782 23.7979C0.869053 24.0169 0.554429 24.3314 0.335441 24.7102C0.116452 25.0889 0.000779485 25.5185 1.05157e-07 25.956V40.368C-0.000128673 40.8158 0.118024 41.2556 0.342498 41.643C0.566972 42.0303 0.889802 42.3515 1.27831 42.5741L13.7195 49.7605C13.9274 49.8832 14.1641 49.9486 14.4055 49.9499C14.701 49.9459 14.9882 49.8517 15.2287 49.6799C15.4039 49.5482 15.5455 49.377 15.642 49.1802C15.7385 48.9834 15.7871 48.7666 15.784 48.5475V34.0222C15.7828 33.9047 15.8128 33.7889 15.8709 33.6868C15.9291 33.5846 16.0133 33.4997 16.115 33.4408L18.48 32.0732L28.7456 26.1586C29.1281 25.939 29.4448 25.6209 29.6625 25.2374C29.8838 24.8564 30.0003 24.4236 30 23.983V9.4839C29.9995 9.06519 29.8882 8.65408 29.6774 8.29228C29.4667 7.93047 29.164 7.63084 28.8001 7.42379ZM1.57883 26.3502L13.419 33.186L1.57883 40.0087V26.3502ZM14.2095 48.2295L2.36934 41.3763L14.2073 34.5318L14.2095 48.2295ZM14.2095 31.8228L2.36934 24.9761L14.2073 18.1337L14.2095 31.8228ZM15.784 1.72257L27.6241 8.56491L15.784 15.4007V1.72257ZM15.784 31.8119V18.1337L27.6241 24.9761L15.784 31.8119ZM28.4146 23.6019L16.5767 16.7683L28.4146 9.93468V23.6019Z" fill="#C60509"/>
</svg>
